<svg width="49" height="61" viewBox="0 0 49 61" fill="none" xmlns="http://www.w3.org/2000/svg">
<path d="M32.2018 26.2484C32.3686 26.2484 32.5375 26.2017 32.6878 26.104L35.7401 24.1208C36.0963 23.8893 36.2691 23.4398 36.1164 23.0433C35.9039 22.4914 35.2588 22.3025 34.7915 22.606L31.7514 24.5813C31.2902 24.8809 31.1669 25.5293 31.5288 25.9435C31.7019 26.1419 31.9497 26.2484 32.2018 26.2484Z" fill="black"/>
<path d="M34.188 29.315C34.3552 29.315 34.5243 29.2681 34.6746 29.1702L37.7171 27.1901C38.1291 26.922 38.2834 26.3697 38.0258 25.9509C37.7615 25.5212 37.1968 25.3962 36.777 25.6696L33.7366 27.6483C33.2758 27.9482 33.1532 28.5963 33.5151 29.0103C33.6884 29.2086 33.9361 29.315 34.188 29.315Z" fill="black"/>
<path d="M31.8144 9.21497C31.8144 8.17964 30.9977 7.3335 29.9172 7.24712L15.3466 6.03785C14.7543 5.99079 14.1793 6.23431 13.772 6.721C13.461 7.09248 13.3072 7.57095 13.3072 8.05537V15.0137C13.3072 15.5431 13.5295 16.4978 15.0196 16.944L29.5885 21.2873C29.7312 21.3297 29.8773 21.3506 30.023 21.3506C30.3611 21.3506 30.6977 21.2382 30.9881 21.0216C31.49 20.6472 31.8144 19.9924 31.8144 19.3534V9.21497ZM30.0273 19.3535C30.0273 19.4115 30.0321 19.551 29.9483 19.5266C29.9472 19.5283 15.5313 15.2317 15.5313 15.2317C15.2145 15.1369 15.0944 15.1176 15.0944 15.0162C15.0944 15.0155 15.0944 15.0146 15.0944 15.0137V7.94445C15.0944 7.84986 15.1401 7.81471 15.2004 7.81924C15.2666 7.82424 29.7723 9.02828 29.7723 9.02828C29.9228 9.03828 30.0275 9.11489 30.0275 9.21497V19.3535H30.0273Z" fill="black"/>
<path d="M48.2721 17.8357C48.2721 17.8357 44.3895 5.15036 44.3603 5.05362C43.8615 3.40114 43.4705 2.45981 41.2359 2.32828L1.26162 0.001462C0.895739 -0.018911 0.541772 0.183866 0.384387 0.547722C0.335182 0.661501 0.316238 0.786122 0.316238 0.910028V18.8774C0.316238 19.2692 0.571676 19.6153 0.945897 19.7311L20.6564 25.8223C20.6565 25.8223 20.6565 25.8223 20.6566 25.8225C20.8871 25.9095 21.1097 26.0004 21.3286 26.093C21.3301 26.0937 21.3312 26.0953 21.3312 26.097C21.3066 29.4157 20.5641 31.8338 19.2717 32.766C18.2654 33.4919 18.3612 34.293 18.4492 34.6037C18.7013 35.4948 19.7628 36.0731 21.3615 36.1905C21.5446 36.204 21.7305 36.2108 21.9189 36.2107C23.8269 36.2106 25.9682 35.5118 27.495 33.9401C27.4976 33.9375 27.5021 33.939 27.5022 33.9428C27.5374 35.187 27.328 36.5424 26.8722 38.0074C26.81 38.208 26.7223 38.4377 26.6211 38.7037C26.2182 39.7606 25.6666 41.2082 25.6666 43.3859V49.86C25.6666 49.9869 25.667 50.108 25.6675 50.2236C25.6706 51.168 25.6645 51.6317 25.4932 51.8536C25.2617 52.1537 24.5173 52.4845 23.3098 52.9542C22.9651 53.0883 22.7381 53.4208 22.7381 53.7907V58.3775C22.7381 59.9708 23.8896 61.0003 25.6719 61.0003H41.0545C42.8772 61.0003 44.2516 59.6579 44.2516 57.8778V54.3914C44.2516 54.3913 44.2516 54.3911 44.2516 54.3909C44.7185 50.4368 45.0139 46.4184 45.1296 42.4463C45.1438 41.9529 44.7556 41.5414 44.2623 41.5271C43.7721 41.5111 43.3575 41.901 43.3432 42.3942C43.2285 46.3313 42.935 50.3146 42.4707 54.2333C42.4666 54.2681 42.4645 54.3033 42.4645 54.3384V57.8778C42.4645 58.6766 41.8979 59.2132 41.0545 59.2132H36.1626C36.1603 59.2132 36.1584 59.2114 36.1584 59.2091C36.0546 55.4646 35.297 52.2561 33.8998 49.6631C32.4024 46.8838 30.2363 44.9259 27.4565 43.8337C27.4549 43.8331 27.4538 43.8315 27.4538 43.8297V43.386C27.4538 41.5372 27.918 40.319 28.2911 39.3401C28.3984 39.0583 28.4999 38.7921 28.5788 38.5383C30.67 31.8163 28.0711 26.7029 21.2612 24.1404C21.2442 24.1346 21.2271 24.1288 21.2102 24.123L7.20352 19.7945C7.20173 19.7939 7.20054 19.7924 7.20054 19.7905V12.4212C7.20054 11.9296 6.82179 11.4991 6.33046 11.4865C5.82614 11.4736 5.41343 11.8785 5.41343 12.3798V19.2356C5.41343 19.2385 5.41069 19.2405 5.40795 19.2397L2.10645 18.2194C2.10466 18.2188 2.10347 18.2172 2.10347 18.2153V1.84492C2.10347 1.84254 2.10549 1.84052 2.10788 1.84075L5.40938 2.03281C5.41164 2.03293 5.41331 2.03484 5.41331 2.03698V8.21109C5.41331 8.70254 5.79206 9.13311 6.2834 9.14562C6.78772 9.15861 7.20042 8.75365 7.20042 8.25243V2.14147C7.20042 2.13908 7.20245 2.13706 7.20483 2.1373L35.0324 3.75606C35.0342 3.75618 35.0355 3.75642 35.036 3.7582C35.0697 3.88163 36.7004 9.85129 36.7179 9.92564C36.8798 10.6143 37.195 10.8224 37.8501 11.0319L39.373 11.4991C39.3745 11.4996 39.3755 11.5007 39.3759 11.5021L42.4781 23.4983C42.4781 23.4985 42.4782 23.4986 42.4782 23.4989C43.0831 28.2908 43.3933 33.2922 43.4001 38.3652C43.4008 38.8583 43.8007 39.2576 44.2937 39.2576H44.2949C44.7885 39.257 45.1879 38.8563 45.1872 38.3628C45.1805 33.4024 44.8878 28.5074 44.3169 23.804C44.3168 23.8023 44.3175 23.8008 44.3189 23.7998L46.7204 22.3704C48.3118 21.4219 49.2804 20.5928 48.2721 17.8357ZM27.4544 50.2176L27.454 45.7884C27.454 45.7853 27.4573 45.7832 27.4602 45.7846C31.7474 47.8192 34.1724 52.515 34.3701 59.2085C34.3701 59.2109 34.3682 59.2129 34.3658 59.2129H25.6719C24.5253 59.2129 24.5253 58.6486 24.5253 58.3773V54.3976C24.5253 54.396 24.5263 54.3943 24.5279 54.3937C25.7926 53.8813 26.4726 53.5094 26.9079 52.9454C27.4611 52.2285 27.4584 51.4285 27.4544 50.2176ZM23.1031 26.9781C25.1144 28.1629 26.4372 29.6752 27.07 31.5057C27.0703 31.5069 27.0703 31.5082 27.0697 31.5092C25.9943 33.5815 24.0047 34.1786 22.8837 34.3489C21.7094 34.527 20.811 34.3513 20.3817 34.1755C20.3787 34.1743 20.3784 34.1704 20.3811 34.1684C22.0166 32.9433 22.9452 30.4742 23.0968 26.9816C23.0968 26.9784 23.1003 26.9764 23.1031 26.9781ZM46.8499 20.0202C46.7399 20.2643 46.3476 20.5119 45.8058 20.8349L43.9294 21.9518C43.9271 21.9532 43.924 21.9519 43.9233 21.9493L40.9804 10.5686C40.9027 10.2679 40.6744 10.0292 40.3774 9.93815L38.4153 9.33613C38.4138 9.33565 38.4114 9.3322 38.4124 9.33327C38.4153 9.33613 36.9195 3.87163 36.9195 3.87163C36.9187 3.86889 36.9209 3.86615 36.9237 3.86627L40.0552 4.04843L41.1301 4.11265C41.9763 4.16233 42.126 4.32102 42.1753 4.37321C42.3408 4.54835 42.4769 4.99929 42.6493 5.57033C42.6793 5.66946 42.7105 5.77275 42.7433 5.8801C42.7433 5.8801 46.5806 18.4143 46.5863 18.4299C46.879 19.2239 46.9677 19.759 46.8499 20.0202Z" fill="black"/>
</svg>
