<svg width="137" height="18" viewBox="0 0 137 18" fill="none" xmlns="http://www.w3.org/2000/svg">
<path fill-rule="evenodd" clip-rule="evenodd" d="M119.816 17.9211H136.929V0.111572H119.816V17.9211Z" fill="#000113"/>
<path fill-rule="evenodd" clip-rule="evenodd" d="M125.007 4.36459H127.434V11.3419H131.738V13.6663H125.007V4.36459Z" fill="#FEFEFE"/>
<path fill-rule="evenodd" clip-rule="evenodd" d="M99.8466 17.9211H116.962V0.111572H99.8466V17.9211Z" fill="#000113"/>
<path fill-rule="evenodd" clip-rule="evenodd" d="M106.974 4.36459H109.834L113.218 13.6663H110.645L110.051 11.8923H106.712L106.125 13.6663H103.589L106.974 4.36459Z" fill="#FEFEFE"/>
<path fill-rule="evenodd" clip-rule="evenodd" d="M108.386 6.88885L107.466 9.64009H109.298L108.386 6.88885Z" fill="#000113"/>
<path fill-rule="evenodd" clip-rule="evenodd" d="M79.8773 17.9211H96.9908V0.112244H79.8773V17.9211Z" fill="#000113"/>
<path fill-rule="evenodd" clip-rule="evenodd" d="M92.6705 13.6675H90.3075L86.624 8.43836V13.6675H84.1957V4.36572H86.5597L90.2443 9.59412V4.36572H92.6705V13.6675Z" fill="#FEFEFE"/>
<path fill-rule="evenodd" clip-rule="evenodd" d="M59.9079 17.9211H77.0232V0.112244H59.9079V17.9211Z" fill="#000113"/>
<path fill-rule="evenodd" clip-rule="evenodd" d="M64.5068 4.27896H66.9396V9.71364C66.9396 10.7837 67.52 11.3356 68.4656 11.3356C69.4107 11.3356 69.9919 10.7837 69.9919 9.71364V4.27896H72.4251V9.78707C72.4251 12.3188 71.0327 13.7546 68.4656 13.7546C65.8982 13.7546 64.5068 12.3188 64.5068 9.78707V4.27896Z" fill="#FEFEFE"/>
<mask id="mask0" mask-type="alpha" maskUnits="userSpaceOnUse" x="0" y="0" width="137" height="18">
<path fill-rule="evenodd" clip-rule="evenodd" d="M0 17.9211H136.929V0.110352H0V17.9211Z" fill="white"/>
</mask>
<g mask="url(#mask0)">
<path fill-rule="evenodd" clip-rule="evenodd" d="M19.9692 17.9211H37.0844V0.110352H19.9692V17.9211Z" fill="#000113"/>
<path fill-rule="evenodd" clip-rule="evenodd" d="M28.526 13.8391C25.7625 13.8391 23.8024 11.7993 23.8024 9.01578C23.8024 6.22986 25.7625 4.19211 28.526 4.19211C31.2912 4.19211 33.2515 6.22986 33.2515 9.01578C33.2515 11.7993 31.2912 13.8391 28.526 13.8391Z" fill="#FEFEFE"/>
<path fill-rule="evenodd" clip-rule="evenodd" d="M28.526 6.61008C27.2228 6.61008 26.3231 7.59886 26.3231 9.01578C26.3231 10.4299 27.2228 11.4214 28.526 11.4214C29.8282 11.4214 30.7296 10.4299 30.7296 9.01578C30.7296 7.59886 29.8282 6.61008 28.526 6.61008Z" fill="#000113"/>
<path fill-rule="evenodd" clip-rule="evenodd" d="M0 17.9211H17.1153V0.110352H0V17.9211Z" fill="#000113"/>
<path fill-rule="evenodd" clip-rule="evenodd" d="M8.87805 4.19205C10.6335 4.19205 12.1725 5.06278 12.957 6.55082L10.8059 7.78509C10.3716 7.00855 9.71374 6.61001 8.83805 6.61001C7.59327 6.61001 6.67958 7.59891 6.67958 9.01583C6.67958 10.6029 7.74088 11.4214 8.84431 11.4214C9.70143 11.4214 10.3716 11.029 10.8626 10.2511L12.855 11.7004C12.0058 13.0095 10.6456 13.8391 8.87805 13.8391C6.11258 13.8391 4.15765 11.8526 4.15765 9.01583C4.15765 6.17878 6.11258 4.19205 8.87805 4.19205Z" fill="#FEFEFE"/>
<path fill-rule="evenodd" clip-rule="evenodd" d="M39.9386 17.9211H57.054V0.112122H39.9386V17.9211Z" fill="#000113"/>
<path fill-rule="evenodd" clip-rule="evenodd" d="M43.3405 4.36569H46.7046L48.5002 9.96027L50.2878 4.36569H53.6522V13.6675H51.2252V7.84797L49.5611 13.6675H47.4606L45.766 7.84797V13.6675H43.3405V4.36569Z" fill="#FEFEFE"/>
</g>
</svg>

