<svg width="89" height="89" viewBox="0 0 89 89" fill="none" xmlns="http://www.w3.org/2000/svg">
<g clip-path="url(#clip0)">
<path d="M46.0482 53.5752H28.3203C27.345 53.5752 26.5542 52.7844 26.5542 51.8091V34.081C26.5542 33.1057 27.345 32.3149 28.3203 32.3149H46.0482C47.0235 32.3149 47.8143 33.1057 47.8143 34.081V51.809C47.8143 52.7844 47.0235 53.5752 46.0482 53.5752Z" fill="#FFD100"/>
<path d="M83.7884 3.2905H19.2271C16.7712 3.2905 14.7731 5.28853 14.7731 7.7445V14.5061L4.45394 14.5062C1.99797 14.5062 -6.10352e-05 16.5043 -6.10352e-05 18.9602V76.2725C-6.10352e-05 81.0357 3.85934 84.9151 8.6165 84.949C8.62236 84.9494 8.62839 84.9492 8.63443 84.9494C8.64942 84.9499 8.66407 84.9516 8.67924 84.9516H54.4048C55.1187 84.9516 55.6975 84.3731 55.6975 83.659C55.6975 82.945 55.1187 82.3664 54.4048 82.3664H14.8534C16.4015 80.798 17.3584 78.6449 17.3584 76.2725V46.0453C17.3584 45.3313 16.7796 44.7527 16.0657 44.7527C15.3519 44.7527 14.7731 45.3313 14.7731 46.0453V76.2725C14.7731 79.6216 12.0573 82.3476 8.7125 82.3657C8.7013 82.3654 8.69044 82.364 8.67924 82.364C5.31896 82.3636 2.58517 79.6311 2.58517 76.2725V18.9602C2.58517 17.9298 3.42347 17.0915 4.45411 17.0915L14.7731 17.0913V41.2196C14.7731 41.9336 15.3519 42.5122 16.0657 42.5122C16.7796 42.5122 17.3584 41.9336 17.3584 41.2196V7.7445C17.3584 6.71403 18.1967 5.87572 19.2271 5.87572H83.7884C84.8188 5.87572 85.6571 6.71403 85.6571 7.7445V76.2725C85.6571 79.6328 82.9233 82.3664 79.5632 82.3664H59.2304C58.5166 82.3664 57.9378 82.945 57.9378 83.659C57.9378 84.3731 58.5166 84.9516 59.2304 84.9516H79.5632C84.349 84.9516 88.2424 81.0581 88.2424 76.2725V7.7445C88.2424 5.28853 86.2443 3.2905 83.7884 3.2905Z" fill="black"/>
<path d="M28.3203 54.8675H46.0482C47.7348 54.8675 49.1069 53.4955 49.1069 51.8089V34.0809C49.1069 32.3943 47.7348 31.0223 46.0482 31.0223H28.3203C26.6337 31.0223 25.2616 32.3943 25.2616 34.0809V51.8089C25.2616 53.4956 26.6337 54.8675 28.3203 54.8675ZM27.8469 34.0809C27.8469 33.8198 28.0592 33.6075 28.3203 33.6075H46.0482C46.3093 33.6075 46.5217 33.8198 46.5217 34.0809V51.8089C46.5217 52.07 46.3093 52.2823 46.0482 52.2823H28.3203C28.0592 52.2823 27.8469 52.07 27.8469 51.8089V34.0809Z" fill="black"/>
<path d="M53.8056 33.6075H77.7965C78.5104 33.6075 79.0891 33.0289 79.0891 32.3149C79.0891 31.6009 78.5104 31.0223 77.7965 31.0223H53.8056C53.0917 31.0223 52.513 31.6009 52.513 32.3149C52.513 33.0289 53.0917 33.6075 53.8056 33.6075Z" fill="black"/>
<path d="M53.8056 44.2377H77.7965C78.5104 44.2377 79.0891 43.6592 79.0891 42.9451C79.0891 42.2311 78.5104 41.6525 77.7965 41.6525H53.8056C53.0917 41.6525 52.513 42.2311 52.513 42.9451C52.513 43.6592 53.0917 44.2377 53.8056 44.2377Z" fill="black"/>
<path d="M53.8056 54.8676H77.7965C78.5104 54.8676 79.0891 54.2891 79.0891 53.575C79.0891 52.861 78.5104 52.2824 77.7965 52.2824H53.8056C53.0917 52.2824 52.513 52.861 52.513 53.575C52.513 54.2891 53.0917 54.8676 53.8056 54.8676Z" fill="black"/>
<path d="M26.5542 65.4978H77.7964C78.5102 65.4978 79.089 64.9193 79.089 64.2052C79.089 63.4912 78.5102 62.9126 77.7964 62.9126H26.5542C25.8404 62.9126 25.2616 63.4912 25.2616 64.2052C25.2616 64.9193 25.8404 65.4978 26.5542 65.4978Z" fill="black"/>
<path d="M26.5542 76.1281H77.7964C78.5102 76.1281 79.089 75.5495 79.089 74.8355C79.089 74.1214 78.5102 73.5428 77.7964 73.5428H26.5542C25.8404 73.5428 25.2616 74.1214 25.2616 74.8355C25.2616 75.5495 25.8404 76.1281 26.5542 76.1281Z" fill="black"/>
<path d="M25.2952 24.4082V10.7495C25.2952 10.4689 25.4284 10.2548 25.695 10.1075C25.9613 9.9601 26.2843 9.88651 26.6631 9.88651C27.1682 9.88651 27.554 9.97785 27.8206 10.16C28.0869 10.3427 28.3816 10.7357 28.7046 11.3387L32.7665 19.1888V10.7284C32.7665 10.4478 32.8995 10.2374 33.1663 10.0969C33.4326 9.95682 33.7556 9.88651 34.1344 9.88651C34.5132 9.88651 34.8359 9.95682 35.1025 10.0969C35.3689 10.2374 35.5023 10.4478 35.5023 10.7284V24.4082C35.5023 24.675 35.3655 24.8855 35.092 25.0397C34.8185 25.1942 34.4991 25.2712 34.1344 25.2712C33.3905 25.2712 32.8644 24.9837 32.556 24.4082L28.0312 15.9477V24.4082C28.0312 24.675 27.8944 24.8855 27.6208 25.0397C27.3473 25.1942 27.028 25.2712 26.6633 25.2712C26.2844 25.2712 25.9615 25.1943 25.6952 25.0397C25.4284 24.8855 25.2952 24.675 25.2952 24.4082Z" fill="black"/>
<path d="M38.028 24.4082V10.7495C38.028 10.483 38.1471 10.2726 38.3858 10.118C38.6242 9.96372 38.9048 9.88651 39.2276 9.88651H46.7201C47.0005 9.88651 47.2147 10.0058 47.3619 10.2443C47.5093 10.483 47.5829 10.7567 47.5829 11.065C47.5829 11.4018 47.5056 11.6896 47.3514 11.928C47.197 12.1668 46.9864 12.2858 46.7201 12.2858H40.7641V16.495H43.963C44.2293 16.495 44.4399 16.6038 44.5945 16.8213C44.7488 17.039 44.826 17.2947 44.826 17.5894C44.826 17.8561 44.7522 18.0981 44.605 18.3156C44.4577 18.5332 44.2436 18.6418 43.963 18.6418H40.7641V22.8721H46.7201C46.9864 22.8721 47.197 22.9914 47.3514 23.2299C47.5056 23.4686 47.5829 23.7561 47.5829 24.0928C47.5829 24.4015 47.5093 24.6752 47.3619 24.9136C47.2147 25.1524 47.0005 25.2714 46.7201 25.2714H39.2276C38.9046 25.2714 38.6242 25.1945 38.3858 25.0399C38.1471 24.8855 38.028 24.675 38.028 24.4082Z" fill="black"/>
<path d="M48.9509 10.9809C48.9509 10.6862 49.1403 10.4304 49.5192 10.2128C49.898 9.99543 50.2906 9.88651 50.6977 9.88651C51.2028 9.88651 51.5044 10.069 51.6027 10.4337L54.928 21.8408L56.7168 14.5166C56.8431 14.0115 57.2919 13.759 58.0637 13.759C58.8213 13.759 59.2632 14.0115 59.3896 14.5166L61.1785 21.8408L64.5038 10.4337C64.6017 10.069 64.9037 9.88651 65.4088 9.88651C65.8156 9.88651 66.2085 9.99543 66.5873 10.2128C66.9662 10.4304 67.1556 10.6862 67.1556 10.9809C67.1556 11.065 67.1414 11.1493 67.1135 11.2336L62.9463 24.4715C62.7359 25.0892 62.1394 25.3975 61.1575 25.3975C60.7366 25.3975 60.3578 25.3167 60.021 25.1555C59.6843 24.9944 59.4807 24.7662 59.4108 24.4715L58.0639 18.789L56.6958 24.4715C56.6254 24.7662 56.4222 24.9944 56.0855 25.1555C55.7487 25.3169 55.3699 25.3975 54.949 25.3975C54.514 25.3975 54.1281 25.3167 53.7915 25.1555C53.4547 24.9944 53.2443 24.7662 53.16 24.4715L48.993 11.2336C48.9647 11.1491 48.9509 11.065 48.9509 10.9809Z" fill="black"/>
<path d="M67.8502 22.851C67.8502 22.5283 67.9729 22.2021 68.2185 21.8722C68.4637 21.5429 68.741 21.3778 69.0497 21.3778C69.2319 21.3778 69.439 21.4653 69.6707 21.6401C69.9023 21.8148 70.1265 22.0084 70.3442 22.2195C70.5615 22.431 70.8737 22.624 71.2808 22.7988C71.6875 22.9739 72.1365 23.0611 72.6277 23.0611C73.3012 23.0611 73.8622 22.9068 74.3113 22.598C74.7601 22.2896 74.9849 21.8334 74.9849 21.23C74.9849 20.8092 74.862 20.4338 74.6166 20.1041C74.371 19.7746 74.0483 19.5009 73.6485 19.2832C73.2486 19.0659 72.81 18.8554 72.3331 18.6519C71.8559 18.4485 71.3756 18.2203 70.8914 17.9678C70.4073 17.7152 69.9654 17.4311 69.5655 17.1154C69.1657 16.7998 68.8427 16.379 68.5975 15.8528C68.3519 15.3266 68.2292 14.7268 68.2292 14.0535C68.2292 13.2987 68.3798 12.6328 68.6816 12.0559C68.9832 11.4791 69.3866 11.0306 69.8916 10.7102C70.3966 10.3899 70.9366 10.1548 71.512 10.0052C72.0872 9.85592 72.6975 9.78094 73.3431 9.78094C73.7078 9.78094 74.0935 9.80611 74.5006 9.85643C74.9073 9.9071 75.3387 9.98983 75.7949 10.105C76.2508 10.2204 76.6227 10.4007 76.9103 10.6453C77.1976 10.8904 77.3417 11.1783 77.3417 11.5099C77.3417 11.8224 77.2433 12.1456 77.0472 12.4794C76.8505 12.8132 76.5841 12.9797 76.2473 12.9797C76.1212 12.9797 75.777 12.8467 75.2162 12.5799C74.6548 12.3136 74.0304 12.1802 73.3431 12.1802C72.5854 12.1802 71.9995 12.3241 71.5858 12.6116C71.1718 12.8994 70.9648 13.2956 70.9648 13.8006C70.9648 14.2077 71.1332 14.5619 71.47 14.8635C71.8068 15.1653 72.224 15.4107 72.7223 15.5999C73.2202 15.7895 73.7603 16.0281 74.3427 16.3155C74.9247 16.6032 75.465 16.9153 75.9633 17.2521C76.4612 17.5888 76.8788 18.0764 77.2156 18.7148C77.5523 19.3533 77.7207 20.1005 77.7207 20.9562C77.7207 22.3953 77.2611 23.5057 76.3423 24.2873C75.4232 25.0693 74.2131 25.46 72.7118 25.46C71.3786 25.46 70.2353 25.1865 69.2813 24.6393C68.327 24.0928 67.8502 23.4964 67.8502 22.851Z" fill="black"/>
</g>
<defs>
<clipPath id="clip0">
<rect width="88.2424" height="88.2424" fill="white"/>
</clipPath>
</defs>
</svg>
