<svg width="66" height="66" viewBox="0 0 66 66" fill="none" xmlns="http://www.w3.org/2000/svg">
<path d="M63.9112 48.1026V43.1341C63.9112 40.3083 61.5965 38.0175 58.7407 38.0175C55.8854 38.0175 53.5708 40.3083 53.5708 43.1341" stroke="#1A181B" stroke-width="3" stroke-linecap="round" stroke-linejoin="round"/>
<path fill-rule="evenodd" clip-rule="evenodd" d="M53.5709 27.7579C53.5709 30.5837 55.8856 32.8745 58.7408 32.8745C61.5967 32.8745 63.9113 30.5837 63.9113 27.7579C63.9113 24.9321 61.5967 22.6407 58.7408 22.6407C55.8856 22.6407 53.5709 24.9321 53.5709 27.7579Z" stroke="#1A181B" stroke-width="3" stroke-linecap="round" stroke-linejoin="round"/>
<path d="M53.5709 48.2634H63.8991" stroke="#1A181B" stroke-width="2.56" stroke-linecap="round" stroke-linejoin="round"/>
<path d="M2.00014 43.1341C2.00014 40.3083 4.3148 38.0175 7.17003 38.0175C10.0259 38.0175 12.3406 40.3083 12.3406 43.1341" stroke="#1A181B" stroke-width="3" stroke-linecap="round" stroke-linejoin="round"/>
<path fill-rule="evenodd" clip-rule="evenodd" d="M43.2653 58.498H53.6019L43.2744 32.8747H22.6426L12.3402 58.498H22.7285" fill="#FFD100"/>
<path d="M43.2653 58.498H53.6019L43.2744 32.8747H22.6426L12.3402 58.498H22.7285" stroke="#1A181B" stroke-width="3" stroke-linecap="round" stroke-linejoin="round"/>
<path fill-rule="evenodd" clip-rule="evenodd" d="M43.2647 63.6273H22.7285V58.4621C22.7285 55.6491 25.0328 53.3685 27.8751 53.3685H38.118C40.961 53.3685 43.2647 55.6491 43.2647 58.4621V63.6273Z" fill="#FAFAFA" stroke="#1A181B" stroke-width="3" stroke-linecap="round" stroke-linejoin="round"/>
<path fill-rule="evenodd" clip-rule="evenodd" d="M38.1788 43.134C38.1788 45.9668 35.8583 48.2634 32.9966 48.2634C30.1336 48.2634 27.8131 45.9668 27.8131 43.134C27.8131 40.3012 30.1336 38.0046 32.9966 38.0046C35.8583 38.0046 38.1788 40.3012 38.1788 43.134Z" fill="white" stroke="#1A181B" stroke-width="3" stroke-linecap="round" stroke-linejoin="round"/>
<path fill-rule="evenodd" clip-rule="evenodd" d="M12.3404 27.7579C12.3404 30.5837 10.0257 32.8745 7.16983 32.8745C4.31461 32.8745 1.99994 30.5837 1.99994 27.7579C1.99994 24.9321 4.31461 22.6407 7.16983 22.6407C10.0257 22.6407 12.3404 24.9321 12.3404 27.7579Z" stroke="#1A181B" stroke-width="3" stroke-linecap="round" stroke-linejoin="round"/>
<path d="M12.3404 48.2634H2.01221V43.134" stroke="#1A181B" stroke-width="2.56" stroke-linecap="round" stroke-linejoin="round"/>
<path fill-rule="evenodd" clip-rule="evenodd" d="M39.4282 17.5109H37.1607L33.1313 21.1599L28.9121 17.5109H26.4883C24.3648 17.5109 22.643 19.2149 22.643 21.3172V27.7747H43.2741V21.3172C43.2741 19.2149 41.5523 17.5109 39.4282 17.5109Z" fill="#00A8CD" stroke="#1A181B" stroke-width="2.56" stroke-linecap="round" stroke-linejoin="round"/>
<path fill-rule="evenodd" clip-rule="evenodd" d="M38.1788 7.28527C38.1788 10.1181 35.8583 12.4146 32.9966 12.4146C30.1336 12.4146 27.8131 10.1181 27.8131 7.28527C27.8131 4.45244 30.1336 2.15588 32.9966 2.15588C35.8583 2.15588 38.1788 4.45244 38.1788 7.28527Z" stroke="#1A181B" stroke-width="3" stroke-linecap="round" stroke-linejoin="round"/>
</svg>
