<svg width="26" height="30" viewBox="0 0 26 30" fill="none" xmlns="http://www.w3.org/2000/svg">
<path d="M25.5168 8.13976L25.5159 8.11641C25.5028 7.82825 25.4942 7.52338 25.4889 7.18418C25.4644 5.53006 24.1495 4.1618 22.4951 4.06934C19.0459 3.87685 16.3776 2.75212 14.0977 0.529917L14.0782 0.511378C13.3346 -0.170459 12.2129 -0.170459 11.469 0.511378L11.4495 0.529917C9.16966 2.75212 6.50136 3.87685 3.05212 4.06957C1.398 4.1618 0.0828443 5.53006 0.0583541 7.18441C0.0533186 7.52132 0.0443923 7.82619 0.031346 8.11641L0.0299728 8.17066C-0.0370894 11.6879 -0.120402 16.0652 1.34398 20.0384C2.14918 22.2233 3.36866 24.1225 4.96831 25.6837C6.79021 27.4617 9.17652 28.8732 12.0609 29.8789C12.1547 29.9116 12.2522 29.9382 12.3516 29.9581C12.4916 29.986 12.6326 30 12.7736 30C12.9146 30 13.0558 29.986 13.1957 29.9581C13.295 29.9382 13.3932 29.9114 13.4875 29.8784C16.3684 28.8709 18.7522 27.4587 20.5725 25.681C22.1715 24.1193 23.391 22.2196 24.1969 20.0343C25.6667 16.0492 25.5836 11.6636 25.5168 8.13976ZM22.5452 19.4252C21.0008 23.6128 17.8479 26.4887 12.9066 28.2168C12.889 28.2227 12.8702 28.228 12.8508 28.2319C12.7997 28.2419 12.7478 28.2419 12.696 28.2316C12.6768 28.2277 12.658 28.2227 12.6406 28.2168C7.69406 26.4919 4.53916 23.6176 2.99582 19.4298C1.6461 15.7675 1.72255 11.7492 1.79007 8.2043L1.79053 8.18462C1.80426 7.87998 1.81342 7.56092 1.81845 7.21027C1.82944 6.47579 2.41446 5.86811 3.15031 5.82714C5.10221 5.7182 6.81699 5.341 8.39261 4.67404C9.96616 4.008 11.3637 3.06913 12.6647 1.80387C12.7308 1.74802 12.8167 1.74779 12.8826 1.80387C14.1838 3.06913 15.5813 4.008 17.1546 4.67404C18.7303 5.341 20.445 5.7182 22.3972 5.82714C23.133 5.86811 23.718 6.47579 23.7288 7.2105C23.7341 7.56298 23.7432 7.88204 23.7569 8.18462C23.8242 11.7337 23.8988 15.7551 22.5452 19.4252Z" fill="white"/>
<path d="M12.7732 7.52405C8.65057 7.52405 5.29677 10.8781 5.29677 15.0005C5.29677 19.1231 8.65057 22.4771 12.7732 22.4771C16.8956 22.4771 20.2496 19.1231 20.2496 15.0005C20.2496 10.8781 16.8956 7.52405 12.7732 7.52405ZM12.7732 20.7166C9.62126 20.7166 7.0571 18.1524 7.0571 15.0005C7.0571 11.8485 9.62126 9.28438 12.7732 9.28438C15.9249 9.28438 18.4891 11.8485 18.4891 15.0005C18.4891 18.1524 15.9249 20.7166 12.7732 20.7166Z" fill="white"/>
<path d="M14.9219 12.6794L11.4493 16.152L10.5068 15.2095C10.163 14.8657 9.6057 14.8657 9.26192 15.2095C8.91837 15.5532 8.91837 16.1106 9.26192 16.4541L10.827 18.0192C10.9989 18.1911 11.2241 18.2769 11.4493 18.2769C11.6746 18.2769 11.8998 18.1911 12.0717 18.0192L16.1668 13.9241C16.5104 13.5803 16.5104 13.0229 16.1668 12.6794C15.823 12.3354 15.2657 12.3354 14.9219 12.6794Z" fill="white"/>
</svg>
